<mxfile host="app.diagrams.net" modified="2023-05-20T02:00:02.680Z" agent="Mozilla/5.0 (Windows NT 10.0; Win64; x64) AppleWebKit/537.36 (KHTML, like Gecko) Chrome/113.0.0.0 Safari/537.36" etag="LJquKXTJWU7L2vC1Yrpf" version="21.3.2" type="device">
  <diagram name="Page-1" id="13e1069c-82ec-6db2-03f1-153e76fe0fe0">
    <mxGraphModel dx="2150" dy="619" grid="1" gridSize="10" guides="1" tooltips="1" connect="1" arrows="1" fold="1" page="1" pageScale="1" pageWidth="1100" pageHeight="850" background="none" math="0" shadow="0">
      <root>
        <mxCell id="0" />
        <mxCell id="1" parent="0" />
        <mxCell id="7baba1c4bc27f4b0-2" value="MoveCommand" style="shape=umlLifeline;perimeter=lifelinePerimeter;whiteSpace=wrap;html=1;container=1;collapsible=0;recursiveResize=0;outlineConnect=0;rounded=1;shadow=0;comic=0;labelBackgroundColor=none;strokeWidth=1;fontFamily=Verdana;fontSize=12;align=center;" parent="1" vertex="1">
          <mxGeometry x="240" y="80" width="100" height="360" as="geometry" />
        </mxCell>
        <mxCell id="ViRyz3v_qWcyZd3MuLMn-2" value="Execute &lt;br&gt;&quot;move east&quot;" style="html=1;verticalAlign=bottom;endArrow=block;entryX=0;entryY=0;labelBackgroundColor=none;fontFamily=Verdana;fontSize=12;edgeStyle=elbowEdgeStyle;elbow=vertical;" parent="7baba1c4bc27f4b0-2" edge="1">
          <mxGeometry relative="1" as="geometry">
            <mxPoint x="-90" y="110" as="sourcePoint" />
            <mxPoint x="45" y="110" as="targetPoint" />
          </mxGeometry>
        </mxCell>
        <mxCell id="7baba1c4bc27f4b0-10" value="" style="html=1;points=[];perimeter=orthogonalPerimeter;rounded=0;shadow=0;comic=0;labelBackgroundColor=none;strokeWidth=1;fontFamily=Verdana;fontSize=12;align=center;" parent="7baba1c4bc27f4b0-2" vertex="1">
          <mxGeometry x="45" y="110" width="10" height="220" as="geometry" />
        </mxCell>
        <mxCell id="ViRyz3v_qWcyZd3MuLMn-11" value="Output of &lt;br&gt;moving sucessfully" style="html=1;verticalAlign=bottom;endArrow=open;dashed=1;endSize=8;edgeStyle=elbowEdgeStyle;elbow=vertical;curved=0;rounded=0;" parent="7baba1c4bc27f4b0-2" source="7baba1c4bc27f4b0-2" edge="1">
          <mxGeometry relative="1" as="geometry">
            <mxPoint x="59" y="330" as="sourcePoint" />
            <mxPoint x="-86" y="330" as="targetPoint" />
          </mxGeometry>
        </mxCell>
        <mxCell id="7baba1c4bc27f4b0-3" value="pL: Location" style="shape=umlLifeline;perimeter=lifelinePerimeter;whiteSpace=wrap;html=1;container=1;collapsible=0;recursiveResize=0;outlineConnect=0;rounded=1;shadow=0;comic=0;labelBackgroundColor=none;strokeWidth=1;fontFamily=Verdana;fontSize=12;align=center;" parent="1" vertex="1">
          <mxGeometry x="400" y="80" width="100" height="360" as="geometry" />
        </mxCell>
        <mxCell id="ViRyz3v_qWcyZd3MuLMn-3" value="FindPath &quot;east&quot;" style="html=1;verticalAlign=bottom;endArrow=block;entryX=0;entryY=0;labelBackgroundColor=none;fontFamily=Verdana;fontSize=12;edgeStyle=elbowEdgeStyle;elbow=vertical;" parent="7baba1c4bc27f4b0-3" edge="1">
          <mxGeometry relative="1" as="geometry">
            <mxPoint x="-102" y="131" as="sourcePoint" />
            <mxPoint x="43" y="131" as="targetPoint" />
          </mxGeometry>
        </mxCell>
        <mxCell id="7baba1c4bc27f4b0-13" value="" style="html=1;points=[];perimeter=orthogonalPerimeter;rounded=0;shadow=0;comic=0;labelBackgroundColor=none;strokeWidth=1;fontFamily=Verdana;fontSize=12;align=center;" parent="7baba1c4bc27f4b0-3" vertex="1">
          <mxGeometry x="45" y="120" width="10" height="140" as="geometry" />
        </mxCell>
        <mxCell id="ViRyz3v_qWcyZd3MuLMn-9" value="Move(Path &quot;east&quot;)" style="html=1;verticalAlign=bottom;endArrow=block;labelBackgroundColor=none;fontFamily=Verdana;fontSize=12;edgeStyle=elbowEdgeStyle;elbow=vertical;entryX=-0.183;entryY=1.006;entryDx=0;entryDy=0;entryPerimeter=0;" parent="7baba1c4bc27f4b0-3" edge="1">
          <mxGeometry relative="1" as="geometry">
            <mxPoint x="-104" y="279" as="sourcePoint" />
            <mxPoint x="324.16999999999985" y="280.0799999999999" as="targetPoint" />
          </mxGeometry>
        </mxCell>
        <mxCell id="7baba1c4bc27f4b0-4" value="east: Path" style="shape=umlLifeline;perimeter=lifelinePerimeter;whiteSpace=wrap;html=1;container=1;collapsible=0;recursiveResize=0;outlineConnect=0;rounded=1;shadow=0;comic=0;labelBackgroundColor=none;strokeWidth=1;fontFamily=Verdana;fontSize=12;align=center;" parent="1" vertex="1">
          <mxGeometry x="540" y="80" width="100" height="360" as="geometry" />
        </mxCell>
        <mxCell id="ViRyz3v_qWcyZd3MuLMn-4" value="AreYou &quot;east&quot;" style="html=1;verticalAlign=bottom;endArrow=block;entryX=0;entryY=0;labelBackgroundColor=none;fontFamily=Verdana;fontSize=12;edgeStyle=elbowEdgeStyle;elbow=vertical;exitX=0.996;exitY=0.153;exitDx=0;exitDy=0;exitPerimeter=0;" parent="7baba1c4bc27f4b0-4" edge="1">
          <mxGeometry relative="1" as="geometry">
            <mxPoint x="-84.04000000000019" y="150.60000000000002" as="sourcePoint" />
            <mxPoint x="46" y="150" as="targetPoint" />
          </mxGeometry>
        </mxCell>
        <mxCell id="7baba1c4bc27f4b0-5" value="p: Player" style="shape=umlLifeline;perimeter=lifelinePerimeter;whiteSpace=wrap;html=1;container=1;collapsible=0;recursiveResize=0;outlineConnect=0;rounded=1;shadow=0;comic=0;labelBackgroundColor=none;strokeWidth=1;fontFamily=Verdana;fontSize=12;align=center;" parent="1" vertex="1">
          <mxGeometry x="680" y="80" width="100" height="360" as="geometry" />
        </mxCell>
        <mxCell id="7baba1c4bc27f4b0-8" value="Program" style="shape=umlLifeline;perimeter=lifelinePerimeter;whiteSpace=wrap;html=1;container=1;collapsible=0;recursiveResize=0;outlineConnect=0;rounded=1;shadow=0;comic=0;labelBackgroundColor=none;strokeWidth=1;fontFamily=Verdana;fontSize=12;align=center;" parent="1" vertex="1">
          <mxGeometry x="100" y="80" width="100" height="360" as="geometry" />
        </mxCell>
        <mxCell id="7baba1c4bc27f4b0-9" value="" style="html=1;points=[];perimeter=orthogonalPerimeter;rounded=0;shadow=0;comic=0;labelBackgroundColor=none;strokeWidth=1;fontFamily=Verdana;fontSize=12;align=center;" parent="7baba1c4bc27f4b0-8" vertex="1">
          <mxGeometry x="45" y="100" width="10" height="240" as="geometry" />
        </mxCell>
        <mxCell id="7baba1c4bc27f4b0-16" value="" style="html=1;points=[];perimeter=orthogonalPerimeter;rounded=0;shadow=0;comic=0;labelBackgroundColor=none;strokeWidth=1;fontFamily=Verdana;fontSize=12;align=center;" parent="1" vertex="1">
          <mxGeometry x="585" y="220" width="10" height="100" as="geometry" />
        </mxCell>
        <mxCell id="7baba1c4bc27f4b0-19" value="" style="html=1;points=[];perimeter=orthogonalPerimeter;rounded=0;shadow=0;comic=0;labelBackgroundColor=none;strokeWidth=1;fontFamily=Verdana;fontSize=12;align=center;" parent="1" vertex="1">
          <mxGeometry x="725" y="180" width="10" height="220" as="geometry" />
        </mxCell>
        <mxCell id="7baba1c4bc27f4b0-11" value="&quot;move east&quot;" style="html=1;verticalAlign=bottom;endArrow=block;entryX=0;entryY=0;labelBackgroundColor=none;fontFamily=Verdana;fontSize=12;edgeStyle=elbowEdgeStyle;elbow=vertical;" parent="1" edge="1">
          <mxGeometry relative="1" as="geometry">
            <mxPoint x="9" y="180" as="sourcePoint" />
            <mxPoint x="144" y="180" as="targetPoint" />
          </mxGeometry>
        </mxCell>
        <mxCell id="ViRyz3v_qWcyZd3MuLMn-6" value="true" style="html=1;verticalAlign=bottom;endArrow=open;dashed=1;endSize=8;edgeStyle=elbowEdgeStyle;elbow=vertical;curved=0;rounded=0;" parent="1" source="7baba1c4bc27f4b0-4" edge="1">
          <mxGeometry relative="1" as="geometry">
            <mxPoint x="535" y="309.5" as="sourcePoint" />
            <mxPoint x="455" y="309.5" as="targetPoint" />
          </mxGeometry>
        </mxCell>
        <mxCell id="ViRyz3v_qWcyZd3MuLMn-7" value="return Path &quot;east&quot;" style="html=1;verticalAlign=bottom;endArrow=open;dashed=1;endSize=8;edgeStyle=elbowEdgeStyle;elbow=vertical;curved=0;rounded=0;" parent="1" edge="1">
          <mxGeometry relative="1" as="geometry">
            <mxPoint x="441" y="325" as="sourcePoint" />
            <mxPoint x="296" y="325" as="targetPoint" />
          </mxGeometry>
        </mxCell>
        <mxCell id="ViRyz3v_qWcyZd3MuLMn-10" value="Move successfully" style="html=1;verticalAlign=bottom;endArrow=open;dashed=1;endSize=8;edgeStyle=elbowEdgeStyle;elbow=vertical;curved=0;rounded=0;" parent="1" edge="1">
          <mxGeometry relative="1" as="geometry">
            <mxPoint x="728" y="399" as="sourcePoint" />
            <mxPoint x="296" y="399" as="targetPoint" />
          </mxGeometry>
        </mxCell>
        <mxCell id="KuKgqyXqM7hUuPYT3Lyd-1" value="" style="shape=umlFrame;whiteSpace=wrap;html=1;pointerEvents=0;width=10;height=15;" vertex="1" parent="1">
          <mxGeometry x="-20" y="30" width="860" height="480" as="geometry" />
        </mxCell>
      </root>
    </mxGraphModel>
  </diagram>
</mxfile>
